<svg width="544" height="544" viewBox="0 0 544 544" fill="none" xmlns="http://www.w3.org/2000/svg">
<path d="M16 98.5602V444.948C16 459.752 28.0016 471.754 42.8063 471.754H501.194C515.998 471.754 528 459.752 528 444.948V153.227C528 138.422 515.998 126.421 501.194 126.421H260.603C250.182 126.421 240.743 120.338 235.291 111.456C225.357 95.2712 207.444 71.7539 187.225 71.7539H42.7644C27.9597 71.7539 16 83.7555 16 98.5602Z" fill="#CF4242"/>
<path d="M528 163.561V435.948C528 450.752 515.998 462.754 501.194 462.754H42.8063C28.0016 462.754 16 450.752 16 435.948V190.699C16 175.895 27.962 163.893 42.7667 163.893H178.178C223.749 163.893 217.382 136.752 248.544 136.754C333.567 136.758 449.546 136.756 501.239 136.755C516.044 136.754 528 148.756 528 163.561Z" fill="#FC7170"/>
<g clip-path="url(#clip0_1220_7979)">
<g filter="url(#filter0_ddiiii_1220_7979)">
<path d="M276.002 161.73C277.802 161.73 279.902 161.955 282.302 162.405C284.702 162.855 286.457 163.335 287.567 163.845V173.655H282.572C280.322 169.455 277.262 167.355 273.392 167.355C271.832 167.355 270.407 167.865 269.117 168.885C267.827 169.875 266.807 171.255 266.057 173.025C265.307 174.795 264.932 176.775 264.932 178.965C264.932 181.455 265.307 183.735 266.057 185.805C266.807 187.845 267.947 189.48 269.477 190.71C271.037 191.91 272.957 192.51 275.237 192.51C278.027 192.51 281.987 191.13 287.117 188.37L289.052 191.475L280.772 197.91C279.392 198.3 278.072 198.555 276.812 198.675C275.552 198.825 274.187 198.9 272.717 198.9C269.297 198.9 266.252 198.135 263.582 196.605C260.942 195.075 258.887 192.975 257.417 190.305C255.947 187.605 255.212 184.545 255.212 181.125C255.212 177.615 256.307 174.375 258.497 171.405C260.687 168.405 263.417 166.05 266.687 164.34C269.957 162.6 273.062 161.73 276.002 161.73ZM319.148 198H308.393V194.085L303.308 198.09C302.708 198.33 301.958 198.45 301.058 198.45C298.088 198.45 295.943 197.73 294.623 196.29C293.303 194.82 292.643 193.065 292.643 191.025C292.643 189.855 293.003 188.7 293.723 187.56C294.443 186.42 295.463 185.37 296.783 184.41H308.393V184.23C308.393 182.67 307.958 181.515 307.088 180.765C306.248 179.985 305.123 179.595 303.713 179.595C301.643 179.595 298.748 180.315 295.028 181.755L293.678 178.965L299.888 173.97C301.478 173.46 303.353 173.205 305.513 173.205C309.053 173.205 311.798 174 313.748 175.59C315.728 177.18 316.718 179.49 316.718 182.52V193.14L320.768 194.715L319.148 198ZM303.623 191.7C305.033 191.7 306.623 191.13 308.393 189.99V187.695H301.328C300.998 188.235 300.833 188.82 300.833 189.45C300.833 190.14 301.073 190.695 301.553 191.115C302.063 191.505 302.753 191.7 303.623 191.7ZM352.976 197.955H342.221V183.825C342.221 182.475 342.011 181.515 341.591 180.945C341.201 180.375 340.511 180.09 339.521 180.09C338.111 180.09 336.686 180.495 335.246 181.305V193.365L339.296 194.67L337.676 197.955H322.916V195.075L326.921 191.655V182.205L322.916 179.64V176.76L332.816 172.8L334.616 177.84L339.926 173.565C340.736 173.325 341.681 173.205 342.761 173.205C345.131 173.205 347.021 173.835 348.431 175.095C349.841 176.325 350.546 178.005 350.546 180.135V193.41L354.596 194.67L352.976 197.955ZM371.162 173.205C372.632 173.205 374.327 173.385 376.247 173.745C378.167 174.075 379.577 174.45 380.477 174.87V183.645H377.282C376.172 182.145 374.912 180.975 373.502 180.135C372.092 179.265 370.607 178.83 369.047 178.83C368.057 178.83 367.277 179.325 366.707 180.315C366.137 181.275 365.852 182.655 365.852 184.455C365.852 186.735 366.332 188.64 367.292 190.17C368.282 191.67 369.677 192.42 371.477 192.42C373.487 192.42 376.412 191.565 380.252 189.855L381.602 192.645L375.302 197.685C373.502 198.195 371.357 198.45 368.867 198.45C366.617 198.45 364.592 197.94 362.792 196.92C360.992 195.87 359.582 194.445 358.562 192.645C357.572 190.845 357.077 188.835 357.077 186.615C357.077 184.215 357.797 181.995 359.237 179.955C360.707 177.885 362.537 176.25 364.727 175.05C366.947 173.82 369.092 173.205 371.162 173.205ZM401.154 173.205C404.394 173.205 406.899 174.435 408.669 176.895C410.469 179.325 411.339 182.76 411.279 187.2H395.214C395.544 188.79 396.159 190.065 397.059 191.025C397.959 191.955 399.129 192.42 400.569 192.42C402.699 192.42 405.804 191.505 409.884 189.675L411.234 192.465L404.754 197.685C402.864 198.195 400.599 198.45 397.959 198.45C395.709 198.45 393.684 197.94 391.884 196.92C390.084 195.87 388.674 194.445 387.654 192.645C386.664 190.845 386.169 188.835 386.169 186.615C386.169 184.215 386.949 181.995 388.509 179.955C390.069 177.885 392.019 176.25 394.359 175.05C396.699 173.82 398.964 173.205 401.154 173.205ZM398.724 178.83C397.494 178.83 396.564 179.25 395.934 180.09C395.334 180.9 395.004 182.16 394.944 183.87H402.954C402.774 182.16 402.369 180.9 401.739 180.09C401.109 179.25 400.104 178.83 398.724 178.83ZM428.973 198H414.213V195.12L418.218 191.7V168.03L414.213 165.375V162.495L423.348 158.715H426.543V193.41L430.593 194.715L428.973 198ZM448.439 173.205C451.679 173.205 454.184 174.435 455.954 176.895C457.754 179.325 458.624 182.76 458.564 187.2H442.499C442.829 188.79 443.444 190.065 444.344 191.025C445.244 191.955 446.414 192.42 447.854 192.42C449.984 192.42 453.089 191.505 457.169 189.675L458.519 192.465L452.039 197.685C450.149 198.195 447.884 198.45 445.244 198.45C442.994 198.45 440.969 197.94 439.169 196.92C437.369 195.87 435.959 194.445 434.939 192.645C433.949 190.845 433.454 188.835 433.454 186.615C433.454 184.215 434.234 181.995 435.794 179.955C437.354 177.885 439.304 176.25 441.644 175.05C443.984 173.82 446.249 173.205 448.439 173.205ZM446.009 178.83C444.779 178.83 443.849 179.25 443.219 180.09C442.619 180.9 442.289 182.16 442.229 183.87H450.239C450.059 182.16 449.654 180.9 449.024 180.09C448.394 179.25 447.389 178.83 446.009 178.83ZM492.18 198.045H481.425V194.67L477.105 198.135C476.145 198.375 475.035 198.495 473.775 198.495C471.795 198.495 470.01 197.985 468.42 196.965C466.86 195.915 465.63 194.49 464.73 192.69C463.86 190.86 463.425 188.85 463.425 186.66C463.425 184.26 464.205 182.04 465.765 180C467.325 177.93 469.275 176.295 471.615 175.095C473.955 173.865 476.22 173.25 478.41 173.25C479.49 173.25 480.495 173.505 481.425 174.015V168.03L477.42 165.375V162.495L486.555 158.715H489.75V193.41L493.8 194.76L492.18 198.045ZM476.655 191.745C478.395 191.745 479.985 191.385 481.425 190.665V182.565C481.245 181.485 480.675 180.6 479.715 179.91C478.755 179.22 477.45 178.875 475.8 178.875C473.4 178.875 472.2 180.765 472.2 184.545C472.2 186.645 472.575 188.385 473.325 189.765C474.105 191.115 475.23 191.79 476.7 191.79L476.655 191.745Z" fill="#CF4242"/>
</g>
<g filter="url(#filter1_ddiiii_1220_7979)">
<path fill-rule="evenodd" clip-rule="evenodd" d="M255.175 290.087C255.02 290.147 254.546 290.274 254.121 290.372C252.108 290.834 250.515 293.213 250.515 295.76V297.481L263.619 321.112L276.723 344.744L273.574 346.638C230.395 372.612 204.169 415.533 198.138 470.094L198 471.344H352.5H507L506.809 469.065C502.449 417.153 474.401 372.579 428.735 344.992C428.427 344.806 431.204 339.585 441.134 321.688C455.354 296.059 454.801 297.145 454.618 295.158C454.193 290.557 448.859 288.479 445.597 291.645C445.178 292.052 438.951 303.017 431.76 316.013C422.233 333.229 418.569 339.607 418.26 339.513C418.027 339.442 415.994 338.568 413.742 337.57C375.981 320.842 329.039 320.965 290.548 337.892C288.354 338.857 286.471 339.545 286.363 339.421C286.255 339.297 280.418 328.81 273.391 316.117C266.364 303.424 260.319 292.628 259.958 292.125C259.034 290.838 256.283 289.666 255.175 290.087ZM284.535 399.179C294.247 401.813 297.497 414.375 290.311 421.511C282.783 428.986 270.615 424.775 268.885 414.097C267.407 404.98 275.938 396.848 284.535 399.179ZM426.537 399.167C435.282 401.538 439.074 411.738 434.095 419.499C427.206 430.24 410.918 425.041 410.918 412.1C410.918 403.486 418.7 397.042 426.537 399.167Z" fill="#CF4242"/>
</g>
</g>
<defs>
<filter id="filter0_ddiiii_1220_7979" x="243.212" y="146.715" width="262.588" height="64.1851" filterUnits="userSpaceOnUse" color-interpolation-filters="sRGB">
<feFlood flood-opacity="0" result="BackgroundImageFix"/>
<feColorMatrix in="SourceAlpha" type="matrix" values="0 0 0 0 0 0 0 0 0 0 0 0 0 0 0 0 0 0 127 0" result="hardAlpha"/>
<feOffset dx="1" dy="-1"/>
<feGaussianBlur stdDeviation="1"/>
<feColorMatrix type="matrix" values="0 0 0 0 0.713726 0 0 0 0 0.227451 0 0 0 0 0.227451 0 0 0 0.5 0"/>
<feBlend mode="normal" in2="BackgroundImageFix" result="effect1_dropShadow_1220_7979"/>
<feColorMatrix in="SourceAlpha" type="matrix" values="0 0 0 0 0 0 0 0 0 0 0 0 0 0 0 0 0 0 127 0" result="hardAlpha"/>
<feOffset dx="-1" dy="1"/>
<feGaussianBlur stdDeviation="1"/>
<feColorMatrix type="matrix" values="0 0 0 0 0.909804 0 0 0 0 0.290196 0 0 0 0 0.290196 0 0 0 0.3 0"/>
<feBlend mode="normal" in2="effect1_dropShadow_1220_7979" result="effect2_dropShadow_1220_7979"/>
<feBlend mode="normal" in="SourceGraphic" in2="effect2_dropShadow_1220_7979" result="shape"/>
<feColorMatrix in="SourceAlpha" type="matrix" values="0 0 0 0 0 0 0 0 0 0 0 0 0 0 0 0 0 0 127 0" result="hardAlpha"/>
<feOffset dx="-12" dy="12"/>
<feGaussianBlur stdDeviation="15"/>
<feComposite in2="hardAlpha" operator="arithmetic" k2="-1" k3="1"/>
<feColorMatrix type="matrix" values="0 0 0 0 0.713726 0 0 0 0 0.227451 0 0 0 0 0.227451 0 0 0 0.9 0"/>
<feBlend mode="normal" in2="shape" result="effect3_innerShadow_1220_7979"/>
<feColorMatrix in="SourceAlpha" type="matrix" values="0 0 0 0 0 0 0 0 0 0 0 0 0 0 0 0 0 0 127 0" result="hardAlpha"/>
<feOffset dx="12" dy="-12"/>
<feGaussianBlur stdDeviation="12"/>
<feComposite in2="hardAlpha" operator="arithmetic" k2="-1" k3="1"/>
<feColorMatrix type="matrix" values="0 0 0 0 0.909804 0 0 0 0 0.290196 0 0 0 0 0.290196 0 0 0 0.9 0"/>
<feBlend mode="normal" in2="effect3_innerShadow_1220_7979" result="effect4_innerShadow_1220_7979"/>
<feColorMatrix in="SourceAlpha" type="matrix" values="0 0 0 0 0 0 0 0 0 0 0 0 0 0 0 0 0 0 127 0" result="hardAlpha"/>
<feOffset dx="-12" dy="-12"/>
<feGaussianBlur stdDeviation="12"/>
<feComposite in2="hardAlpha" operator="arithmetic" k2="-1" k3="1"/>
<feColorMatrix type="matrix" values="0 0 0 0 0.713726 0 0 0 0 0.227451 0 0 0 0 0.227451 0 0 0 0.2 0"/>
<feBlend mode="normal" in2="effect4_innerShadow_1220_7979" result="effect5_innerShadow_1220_7979"/>
<feColorMatrix in="SourceAlpha" type="matrix" values="0 0 0 0 0 0 0 0 0 0 0 0 0 0 0 0 0 0 127 0" result="hardAlpha"/>
<feOffset dx="12" dy="12"/>
<feGaussianBlur stdDeviation="12"/>
<feComposite in2="hardAlpha" operator="arithmetic" k2="-1" k3="1"/>
<feColorMatrix type="matrix" values="0 0 0 0 0.713726 0 0 0 0 0.227451 0 0 0 0 0.227451 0 0 0 0.2 0"/>
<feBlend mode="normal" in2="effect5_innerShadow_1220_7979" result="effect6_innerShadow_1220_7979"/>
</filter>
<filter id="filter1_ddiiii_1220_7979" x="186" y="278" width="333" height="205.344" filterUnits="userSpaceOnUse" color-interpolation-filters="sRGB">
<feFlood flood-opacity="0" result="BackgroundImageFix"/>
<feColorMatrix in="SourceAlpha" type="matrix" values="0 0 0 0 0 0 0 0 0 0 0 0 0 0 0 0 0 0 127 0" result="hardAlpha"/>
<feOffset dx="1" dy="-1"/>
<feGaussianBlur stdDeviation="1"/>
<feColorMatrix type="matrix" values="0 0 0 0 0.713726 0 0 0 0 0.227451 0 0 0 0 0.227451 0 0 0 0.5 0"/>
<feBlend mode="normal" in2="BackgroundImageFix" result="effect1_dropShadow_1220_7979"/>
<feColorMatrix in="SourceAlpha" type="matrix" values="0 0 0 0 0 0 0 0 0 0 0 0 0 0 0 0 0 0 127 0" result="hardAlpha"/>
<feOffset dx="-1" dy="1"/>
<feGaussianBlur stdDeviation="1"/>
<feColorMatrix type="matrix" values="0 0 0 0 0.909804 0 0 0 0 0.290196 0 0 0 0 0.290196 0 0 0 0.3 0"/>
<feBlend mode="normal" in2="effect1_dropShadow_1220_7979" result="effect2_dropShadow_1220_7979"/>
<feBlend mode="normal" in="SourceGraphic" in2="effect2_dropShadow_1220_7979" result="shape"/>
<feColorMatrix in="SourceAlpha" type="matrix" values="0 0 0 0 0 0 0 0 0 0 0 0 0 0 0 0 0 0 127 0" result="hardAlpha"/>
<feOffset dx="-12" dy="12"/>
<feGaussianBlur stdDeviation="15"/>
<feComposite in2="hardAlpha" operator="arithmetic" k2="-1" k3="1"/>
<feColorMatrix type="matrix" values="0 0 0 0 0.713726 0 0 0 0 0.227451 0 0 0 0 0.227451 0 0 0 0.9 0"/>
<feBlend mode="normal" in2="shape" result="effect3_innerShadow_1220_7979"/>
<feColorMatrix in="SourceAlpha" type="matrix" values="0 0 0 0 0 0 0 0 0 0 0 0 0 0 0 0 0 0 127 0" result="hardAlpha"/>
<feOffset dx="12" dy="-12"/>
<feGaussianBlur stdDeviation="12"/>
<feComposite in2="hardAlpha" operator="arithmetic" k2="-1" k3="1"/>
<feColorMatrix type="matrix" values="0 0 0 0 0.909804 0 0 0 0 0.290196 0 0 0 0 0.290196 0 0 0 0.9 0"/>
<feBlend mode="normal" in2="effect3_innerShadow_1220_7979" result="effect4_innerShadow_1220_7979"/>
<feColorMatrix in="SourceAlpha" type="matrix" values="0 0 0 0 0 0 0 0 0 0 0 0 0 0 0 0 0 0 127 0" result="hardAlpha"/>
<feOffset dx="-12" dy="-12"/>
<feGaussianBlur stdDeviation="12"/>
<feComposite in2="hardAlpha" operator="arithmetic" k2="-1" k3="1"/>
<feColorMatrix type="matrix" values="0 0 0 0 0.713726 0 0 0 0 0.227451 0 0 0 0 0.227451 0 0 0 0.2 0"/>
<feBlend mode="normal" in2="effect4_innerShadow_1220_7979" result="effect5_innerShadow_1220_7979"/>
<feColorMatrix in="SourceAlpha" type="matrix" values="0 0 0 0 0 0 0 0 0 0 0 0 0 0 0 0 0 0 127 0" result="hardAlpha"/>
<feOffset dx="12" dy="12"/>
<feGaussianBlur stdDeviation="12"/>
<feComposite in2="hardAlpha" operator="arithmetic" k2="-1" k3="1"/>
<feColorMatrix type="matrix" values="0 0 0 0 0.713726 0 0 0 0 0.227451 0 0 0 0 0.227451 0 0 0 0.2 0"/>
<feBlend mode="normal" in2="effect5_innerShadow_1220_7979" result="effect6_innerShadow_1220_7979"/>
</filter>
<clipPath id="clip0_1220_7979">
<rect x="16" y="137" width="512" height="334" rx="25.466" fill="white"/>
</clipPath>
</defs>
</svg>
