<svg width="544" height="544" viewBox="0 0 544 544" fill="none" xmlns="http://www.w3.org/2000/svg">
<path d="M16 98.5602V444.948C16 459.752 28.0016 471.754 42.8063 471.754H501.194C515.998 471.754 528 459.752 528 444.948V153.227C528 138.422 515.998 126.421 501.194 126.421H260.603C250.182 126.421 240.743 120.338 235.291 111.456C225.357 95.2712 207.444 71.7539 187.225 71.7539H42.7644C27.9597 71.7539 16 83.7555 16 98.5602Z" fill="#30C584"/>
<path d="M528 163.561V435.948C528 450.752 515.998 462.754 501.194 462.754H42.8063C28.0016 462.754 16 450.752 16 435.948V190.699C16 175.895 27.962 163.893 42.7667 163.893H178.178C223.749 163.893 217.382 136.752 248.544 136.754C333.567 136.758 449.546 136.756 501.239 136.755C516.044 136.754 528 148.756 528 163.561Z" fill="#7DF6C2"/>
<g clip-path="url(#clip0_1220_7972)">
<g filter="url(#filter0_ddiiii_1220_7972)">
<path d="M253.726 161.73C255.586 161.73 257.746 161.955 260.206 162.405C262.666 162.855 264.466 163.335 265.606 163.845V173.925H259.846C258.736 171.795 257.431 170.235 255.931 169.245C254.461 168.255 252.856 167.76 251.116 167.76C249.646 167.76 248.296 168.255 247.066 169.245C245.866 170.205 244.906 171.54 244.186 173.25C243.496 174.96 243.151 176.865 243.151 178.965C243.151 181.335 243.511 183.51 244.231 185.49C244.951 187.44 246.046 189 247.516 190.17C248.986 191.34 250.801 191.925 252.961 191.925C255.811 191.925 259.831 190.665 265.021 188.145L267.091 191.475L258.811 197.91C257.371 198.33 255.991 198.6 254.671 198.72C253.381 198.84 251.971 198.9 250.441 198.9C246.931 198.9 243.826 198.135 241.126 196.605C238.426 195.075 236.326 192.975 234.826 190.305C233.326 187.605 232.576 184.545 232.576 181.125C232.576 177.615 233.686 174.375 235.906 171.405C238.156 168.405 240.931 166.05 244.231 164.34C247.561 162.6 250.726 161.73 253.726 161.73ZM286.022 173.115C288.362 173.115 290.447 173.64 292.277 174.69C294.137 175.71 295.577 177.135 296.597 178.965C297.647 180.765 298.172 182.775 298.172 184.995C298.172 187.395 297.377 189.63 295.787 191.7C294.197 193.77 292.202 195.42 289.802 196.65C287.402 197.85 285.077 198.45 282.827 198.45C280.487 198.45 278.387 197.94 276.527 196.92C274.697 195.87 273.257 194.445 272.207 192.645C271.187 190.815 270.677 188.79 270.677 186.57C270.677 184.17 271.472 181.935 273.062 179.865C274.652 177.795 276.647 176.16 279.047 174.96C281.447 173.73 283.772 173.115 286.022 173.115ZM283.412 179.145C282.452 179.145 281.702 179.595 281.162 180.495C280.652 181.365 280.397 182.67 280.397 184.41C280.397 186.75 280.832 188.67 281.702 190.17C282.602 191.67 283.847 192.42 285.437 192.42C286.397 192.42 287.132 191.97 287.642 191.07C288.182 190.17 288.452 188.85 288.452 187.11C288.452 184.77 288.002 182.865 287.102 181.395C286.232 179.895 285.002 179.145 283.412 179.145ZM346.139 198H334.889V183.195C334.889 182.205 334.739 181.515 334.439 181.125C334.139 180.735 333.599 180.54 332.819 180.54C331.679 180.54 330.554 180.84 329.444 181.44V193.23L333.044 194.4L331.244 198H320.444V183.195C320.444 182.205 320.294 181.515 319.994 181.125C319.694 180.735 319.154 180.54 318.374 180.54C317.234 180.54 316.109 180.84 314.999 181.44V193.23L318.599 194.4L316.799 198H301.994V194.805L305.999 191.295V182.52L301.994 179.91V176.715L312.389 172.71L314.279 177.57L319.364 173.475C320.024 173.235 320.849 173.115 321.839 173.115C323.609 173.115 325.109 173.49 326.339 174.24C327.569 174.96 328.439 175.995 328.949 177.345L333.764 173.475C334.424 173.235 335.249 173.115 336.239 173.115C338.549 173.115 340.379 173.745 341.729 175.005C343.109 176.235 343.799 177.915 343.799 180.045V193.14L347.939 194.4L346.139 198ZM365.291 198.45C364.331 198.45 363.446 198.225 362.636 197.775V204.075L369.836 205.83L368.036 209.43H349.631V206.235L353.636 202.725V182.52L349.631 179.91V176.715L360.026 172.71L361.916 177.615L367.046 173.475C368.006 173.235 369.101 173.115 370.331 173.115C372.311 173.115 374.081 173.64 375.641 174.69C377.231 175.71 378.461 177.135 379.331 178.965C380.231 180.765 380.681 182.775 380.681 184.995C380.681 187.395 379.886 189.63 378.296 191.7C376.706 193.77 374.711 195.42 372.311 196.65C369.911 197.85 367.586 198.45 365.336 198.45H365.291ZM367.181 180.495C365.561 180.495 364.031 180.825 362.591 181.485V188.01C362.591 189.27 363.056 190.32 363.986 191.16C364.916 192 366.221 192.42 367.901 192.42C370.091 192.42 371.186 190.65 371.186 187.11C371.186 185.16 370.856 183.57 370.196 182.34C369.536 181.11 368.546 180.495 367.226 180.495H367.181ZM398.439 198H383.184V194.805L387.189 191.295V168.525L383.184 165.915V162.72L392.679 158.715H396.189V193.14L400.239 194.4L398.439 198ZM418.032 173.115C421.362 173.115 423.942 174.36 425.772 176.85C427.602 179.34 428.472 182.88 428.382 187.47H412.497C412.857 188.85 413.457 189.945 414.297 190.755C415.137 191.535 416.202 191.925 417.492 191.925C419.622 191.925 422.802 191.145 427.032 189.585L428.382 192.645L422.217 197.595C420.177 198.165 417.732 198.45 414.882 198.45C412.542 198.45 410.442 197.94 408.582 196.92C406.752 195.87 405.312 194.445 404.262 192.645C403.242 190.815 402.732 188.79 402.732 186.57C402.732 184.17 403.527 181.935 405.117 179.865C406.707 177.795 408.702 176.16 411.102 174.96C413.502 173.73 415.827 173.115 418.077 173.115H418.032ZM415.647 179.145C414.537 179.145 413.697 179.535 413.127 180.315C412.557 181.065 412.242 182.235 412.182 183.825H419.607C419.457 182.235 419.067 181.065 418.437 180.315C417.807 179.535 416.862 179.145 415.602 179.145H415.647ZM448.853 198.09C447.623 198.33 446.183 198.45 444.533 198.45C441.413 198.45 439.133 197.805 437.693 196.515C436.253 195.195 435.533 193.17 435.533 190.44V178.56H430.673V175.815L441.023 164.97H444.533V174.915H452.633V178.56H444.533V189.63C444.533 191.46 445.703 192.375 448.043 192.375C448.643 192.375 449.228 192.315 449.798 192.195C450.398 192.045 451.148 191.79 452.048 191.43L453.398 194.49L448.853 198.09ZM470.503 173.115C473.833 173.115 476.413 174.36 478.243 176.85C480.073 179.34 480.943 182.88 480.853 187.47H464.968C465.328 188.85 465.928 189.945 466.768 190.755C467.608 191.535 468.673 191.925 469.963 191.925C472.093 191.925 475.273 191.145 479.503 189.585L480.853 192.645L474.688 197.595C472.648 198.165 470.203 198.45 467.353 198.45C465.013 198.45 462.913 197.94 461.053 196.92C459.223 195.87 457.783 194.445 456.733 192.645C455.713 190.815 455.203 188.79 455.203 186.57C455.203 184.17 455.998 181.935 457.588 179.865C459.178 177.795 461.173 176.16 463.573 174.96C465.973 173.73 468.298 173.115 470.548 173.115H470.503ZM468.118 179.145C467.008 179.145 466.168 179.535 465.598 180.315C465.028 181.065 464.713 182.235 464.653 183.825H472.078C471.928 182.235 471.538 181.065 470.908 180.315C470.278 179.535 469.333 179.145 468.073 179.145H468.118ZM514.644 198H503.394V194.58L499.029 198.09C498.069 198.33 496.974 198.45 495.744 198.45C493.764 198.45 491.979 197.94 490.389 196.92C488.829 195.87 487.599 194.445 486.699 192.645C485.829 190.815 485.394 188.79 485.394 186.57C485.394 184.17 486.189 181.935 487.779 179.865C489.369 177.795 491.364 176.16 493.764 174.96C496.164 173.73 498.489 173.115 500.739 173.115C501.669 173.115 502.554 173.325 503.394 173.745V168.525L499.389 165.915V162.72L508.884 158.715H512.394V193.14L516.444 194.4L514.644 198ZM498.849 191.07C500.469 191.07 501.999 190.74 503.439 190.08V182.52C503.259 181.53 502.719 180.72 501.819 180.09C500.919 179.46 499.689 179.145 498.129 179.145C495.939 179.145 494.844 180.915 494.844 184.455C494.844 186.405 495.174 187.995 495.834 189.225C496.494 190.455 497.484 191.07 498.804 191.07H498.849Z" fill="#30C583"/>
</g>
<g filter="url(#filter1_ddiiii_1220_7972)">
<path fill-rule="evenodd" clip-rule="evenodd" d="M255.175 290.087C255.02 290.147 254.546 290.274 254.121 290.372C252.108 290.834 250.515 293.213 250.515 295.76V297.481L263.619 321.112L276.723 344.744L273.574 346.638C230.395 372.612 204.169 415.533 198.138 470.094L198 471.344H352.5H507L506.809 469.065C502.449 417.153 474.401 372.579 428.735 344.992C428.427 344.806 431.204 339.585 441.134 321.688C455.354 296.059 454.801 297.145 454.618 295.158C454.193 290.557 448.859 288.479 445.597 291.645C445.178 292.052 438.951 303.017 431.76 316.013C422.233 333.229 418.569 339.607 418.26 339.513C418.027 339.442 415.994 338.568 413.742 337.57C375.981 320.842 329.039 320.965 290.548 337.892C288.354 338.857 286.471 339.545 286.363 339.421C286.255 339.297 280.418 328.81 273.391 316.117C266.364 303.424 260.319 292.628 259.958 292.125C259.034 290.838 256.283 289.666 255.175 290.087ZM284.535 399.179C294.247 401.813 297.497 414.375 290.311 421.511C282.783 428.986 270.615 424.775 268.885 414.097C267.407 404.98 275.938 396.848 284.535 399.179ZM426.537 399.167C435.282 401.538 439.074 411.738 434.095 419.499C427.206 430.24 410.918 425.041 410.918 412.1C410.918 403.486 418.7 397.042 426.537 399.167Z" fill="#30C584"/>
</g>
</g>
<defs>
<filter id="filter0_ddiiii_1220_7972" x="220.576" y="146.715" width="307.867" height="74.7153" filterUnits="userSpaceOnUse" color-interpolation-filters="sRGB">
<feFlood flood-opacity="0" result="BackgroundImageFix"/>
<feColorMatrix in="SourceAlpha" type="matrix" values="0 0 0 0 0 0 0 0 0 0 0 0 0 0 0 0 0 0 127 0" result="hardAlpha"/>
<feOffset dx="1" dy="-1"/>
<feGaussianBlur stdDeviation="1"/>
<feColorMatrix type="matrix" values="0 0 0 0 0.164706 0 0 0 0 0.678431 0 0 0 0 0.454902 0 0 0 0.5 0"/>
<feBlend mode="normal" in2="BackgroundImageFix" result="effect1_dropShadow_1220_7972"/>
<feColorMatrix in="SourceAlpha" type="matrix" values="0 0 0 0 0 0 0 0 0 0 0 0 0 0 0 0 0 0 127 0" result="hardAlpha"/>
<feOffset dx="-1" dy="1"/>
<feGaussianBlur stdDeviation="1"/>
<feColorMatrix type="matrix" values="0 0 0 0 0.211765 0 0 0 0 0.866667 0 0 0 0 0.580392 0 0 0 0.3 0"/>
<feBlend mode="normal" in2="effect1_dropShadow_1220_7972" result="effect2_dropShadow_1220_7972"/>
<feBlend mode="normal" in="SourceGraphic" in2="effect2_dropShadow_1220_7972" result="shape"/>
<feColorMatrix in="SourceAlpha" type="matrix" values="0 0 0 0 0 0 0 0 0 0 0 0 0 0 0 0 0 0 127 0" result="hardAlpha"/>
<feOffset dx="-12" dy="12"/>
<feGaussianBlur stdDeviation="15"/>
<feComposite in2="hardAlpha" operator="arithmetic" k2="-1" k3="1"/>
<feColorMatrix type="matrix" values="0 0 0 0 0.164706 0 0 0 0 0.678431 0 0 0 0 0.454902 0 0 0 0.9 0"/>
<feBlend mode="normal" in2="shape" result="effect3_innerShadow_1220_7972"/>
<feColorMatrix in="SourceAlpha" type="matrix" values="0 0 0 0 0 0 0 0 0 0 0 0 0 0 0 0 0 0 127 0" result="hardAlpha"/>
<feOffset dx="12" dy="-12"/>
<feGaussianBlur stdDeviation="12"/>
<feComposite in2="hardAlpha" operator="arithmetic" k2="-1" k3="1"/>
<feColorMatrix type="matrix" values="0 0 0 0 0.211765 0 0 0 0 0.866667 0 0 0 0 0.580392 0 0 0 0.9 0"/>
<feBlend mode="normal" in2="effect3_innerShadow_1220_7972" result="effect4_innerShadow_1220_7972"/>
<feColorMatrix in="SourceAlpha" type="matrix" values="0 0 0 0 0 0 0 0 0 0 0 0 0 0 0 0 0 0 127 0" result="hardAlpha"/>
<feOffset dx="-12" dy="-12"/>
<feGaussianBlur stdDeviation="12"/>
<feComposite in2="hardAlpha" operator="arithmetic" k2="-1" k3="1"/>
<feColorMatrix type="matrix" values="0 0 0 0 0.164706 0 0 0 0 0.678431 0 0 0 0 0.454902 0 0 0 0.2 0"/>
<feBlend mode="normal" in2="effect4_innerShadow_1220_7972" result="effect5_innerShadow_1220_7972"/>
<feColorMatrix in="SourceAlpha" type="matrix" values="0 0 0 0 0 0 0 0 0 0 0 0 0 0 0 0 0 0 127 0" result="hardAlpha"/>
<feOffset dx="12" dy="12"/>
<feGaussianBlur stdDeviation="12"/>
<feComposite in2="hardAlpha" operator="arithmetic" k2="-1" k3="1"/>
<feColorMatrix type="matrix" values="0 0 0 0 0.164706 0 0 0 0 0.678431 0 0 0 0 0.454902 0 0 0 0.2 0"/>
<feBlend mode="normal" in2="effect5_innerShadow_1220_7972" result="effect6_innerShadow_1220_7972"/>
</filter>
<filter id="filter1_ddiiii_1220_7972" x="186" y="278" width="333" height="205.344" filterUnits="userSpaceOnUse" color-interpolation-filters="sRGB">
<feFlood flood-opacity="0" result="BackgroundImageFix"/>
<feColorMatrix in="SourceAlpha" type="matrix" values="0 0 0 0 0 0 0 0 0 0 0 0 0 0 0 0 0 0 127 0" result="hardAlpha"/>
<feOffset dx="1" dy="-1"/>
<feGaussianBlur stdDeviation="1"/>
<feColorMatrix type="matrix" values="0 0 0 0 0.164706 0 0 0 0 0.678431 0 0 0 0 0.454902 0 0 0 0.5 0"/>
<feBlend mode="normal" in2="BackgroundImageFix" result="effect1_dropShadow_1220_7972"/>
<feColorMatrix in="SourceAlpha" type="matrix" values="0 0 0 0 0 0 0 0 0 0 0 0 0 0 0 0 0 0 127 0" result="hardAlpha"/>
<feOffset dx="-1" dy="1"/>
<feGaussianBlur stdDeviation="1"/>
<feColorMatrix type="matrix" values="0 0 0 0 0.211765 0 0 0 0 0.866667 0 0 0 0 0.580392 0 0 0 0.3 0"/>
<feBlend mode="normal" in2="effect1_dropShadow_1220_7972" result="effect2_dropShadow_1220_7972"/>
<feBlend mode="normal" in="SourceGraphic" in2="effect2_dropShadow_1220_7972" result="shape"/>
<feColorMatrix in="SourceAlpha" type="matrix" values="0 0 0 0 0 0 0 0 0 0 0 0 0 0 0 0 0 0 127 0" result="hardAlpha"/>
<feOffset dx="-12" dy="12"/>
<feGaussianBlur stdDeviation="15"/>
<feComposite in2="hardAlpha" operator="arithmetic" k2="-1" k3="1"/>
<feColorMatrix type="matrix" values="0 0 0 0 0.164706 0 0 0 0 0.678431 0 0 0 0 0.454902 0 0 0 0.9 0"/>
<feBlend mode="normal" in2="shape" result="effect3_innerShadow_1220_7972"/>
<feColorMatrix in="SourceAlpha" type="matrix" values="0 0 0 0 0 0 0 0 0 0 0 0 0 0 0 0 0 0 127 0" result="hardAlpha"/>
<feOffset dx="12" dy="-12"/>
<feGaussianBlur stdDeviation="12"/>
<feComposite in2="hardAlpha" operator="arithmetic" k2="-1" k3="1"/>
<feColorMatrix type="matrix" values="0 0 0 0 0.211765 0 0 0 0 0.866667 0 0 0 0 0.580392 0 0 0 0.9 0"/>
<feBlend mode="normal" in2="effect3_innerShadow_1220_7972" result="effect4_innerShadow_1220_7972"/>
<feColorMatrix in="SourceAlpha" type="matrix" values="0 0 0 0 0 0 0 0 0 0 0 0 0 0 0 0 0 0 127 0" result="hardAlpha"/>
<feOffset dx="-12" dy="-12"/>
<feGaussianBlur stdDeviation="12"/>
<feComposite in2="hardAlpha" operator="arithmetic" k2="-1" k3="1"/>
<feColorMatrix type="matrix" values="0 0 0 0 0.164706 0 0 0 0 0.678431 0 0 0 0 0.454902 0 0 0 0.2 0"/>
<feBlend mode="normal" in2="effect4_innerShadow_1220_7972" result="effect5_innerShadow_1220_7972"/>
<feColorMatrix in="SourceAlpha" type="matrix" values="0 0 0 0 0 0 0 0 0 0 0 0 0 0 0 0 0 0 127 0" result="hardAlpha"/>
<feOffset dx="12" dy="12"/>
<feGaussianBlur stdDeviation="12"/>
<feComposite in2="hardAlpha" operator="arithmetic" k2="-1" k3="1"/>
<feColorMatrix type="matrix" values="0 0 0 0 0.164706 0 0 0 0 0.678431 0 0 0 0 0.454902 0 0 0 0.2 0"/>
<feBlend mode="normal" in2="effect5_innerShadow_1220_7972" result="effect6_innerShadow_1220_7972"/>
</filter>
<clipPath id="clip0_1220_7972">
<rect x="16" y="137" width="512" height="334" rx="25.466" fill="white"/>
</clipPath>
</defs>
</svg>
