<svg width="544" height="544" viewBox="0 0 544 544" fill="none" xmlns="http://www.w3.org/2000/svg">
<path d="M16 98.5602V444.948C16 459.752 28.0016 471.754 42.8063 471.754H501.194C515.998 471.754 528 459.752 528 444.948V153.227C528 138.422 515.998 126.421 501.194 126.421H260.603C250.182 126.421 240.743 120.338 235.291 111.456C225.357 95.2712 207.444 71.7539 187.225 71.7539H42.7644C27.9597 71.7539 16 83.7555 16 98.5602Z" fill="#30C584"/>
<path d="M528 163.561V435.948C528 450.752 515.998 462.754 501.194 462.754H42.8063C28.0016 462.754 16 450.752 16 435.948V190.699C16 175.895 27.962 163.893 42.7667 163.893H178.178C223.749 163.893 217.382 136.752 248.544 136.754C333.567 136.758 449.546 136.756 501.239 136.755C516.044 136.754 528 148.756 528 163.561Z" fill="url(#paint0_linear_1212_8038)"/>
<g clip-path="url(#clip0_1212_8038)">
<g filter="url(#filter0_ddiiii_1212_8038)">
<path d="M450.297 228.555C444.176 237.736 433.873 243.25 422.839 243.25H387.161C376.127 243.25 365.824 237.736 359.703 228.555L343.208 203.812C339.27 197.877 343.485 190 350.585 190H459.415C466.515 190 470.73 197.877 466.792 203.812L450.297 228.555ZM362.289 265.659C366.994 262.621 372.485 261 378.085 261H431.915C437.515 261 442.978 262.665 447.711 265.659C479.162 285.795 547 329.171 547 420.75C547 450.148 523.148 474 493.75 474H316.25C286.852 474 263 450.148 263 420.75C263 329.171 330.838 285.795 362.289 265.659ZM416.205 314.25C416.174 314.25 416.149 314.225 416.149 314.194C416.119 308.063 411.138 303.101 405 303.101C398.843 303.101 393.851 308.093 393.851 314.25C393.851 316.191 392.488 317.849 390.623 318.387C388.689 318.944 386.826 319.618 385.031 320.407C376.711 324.179 369.555 331.168 367.78 341.319C366.782 346.977 367.337 352.412 369.666 357.405C371.996 362.286 375.602 365.725 379.263 368.221C385.697 372.603 394.184 375.155 400.673 377.096L401.894 377.484C409.604 379.814 414.873 381.589 418.146 383.974C419.533 384.973 420.032 385.749 420.254 386.248C420.42 386.692 420.753 387.691 420.365 389.965C420.032 391.906 418.978 393.515 415.927 394.846C412.544 396.288 407.052 397.009 399.952 395.9C396.624 395.345 390.689 393.348 385.42 391.518C384.199 391.074 383.034 390.686 381.925 390.353C376.101 388.412 369.833 391.573 367.891 397.398C365.95 403.222 369.112 409.49 374.936 411.431C375.602 411.653 376.434 411.93 377.377 412.263C380.88 413.461 385.979 415.19 390.575 416.459C392.516 416.994 393.906 418.737 393.906 420.75C393.906 426.907 398.898 431.899 405.055 431.899C411.213 431.899 416.205 426.907 416.205 420.75C416.205 418.982 417.471 417.484 419.183 417.041C421.097 416.545 422.946 415.919 424.747 415.148C433.455 411.431 440.5 404.22 442.275 393.681C443.273 387.913 442.83 382.421 440.611 377.373C438.448 372.381 434.953 368.72 431.237 366.002C424.47 361.121 415.539 358.403 408.827 356.351L408.384 356.24C400.507 353.855 395.182 352.191 391.798 349.916C390.261 348.852 389.421 347.043 389.746 345.202C389.912 344.148 390.8 342.317 394.295 340.709C397.845 339.1 403.391 338.213 410.159 339.266C412.544 339.655 420.087 341.097 422.195 341.652C428.13 343.205 434.177 339.71 435.785 333.775C437.394 327.84 433.844 321.794 427.909 320.185C425.795 319.609 421.353 318.7 417.823 318.034C416.918 317.864 416.26 317.075 416.26 316.155V314.305C416.26 314.275 416.235 314.25 416.205 314.25Z" fill="#30C584"/>
</g>
</g>
<defs>
<filter id="filter0_ddiiii_1212_8038" x="251" y="178" width="308" height="308" filterUnits="userSpaceOnUse" color-interpolation-filters="sRGB">
<feFlood flood-opacity="0" result="BackgroundImageFix"/>
<feColorMatrix in="SourceAlpha" type="matrix" values="0 0 0 0 0 0 0 0 0 0 0 0 0 0 0 0 0 0 127 0" result="hardAlpha"/>
<feOffset dx="1" dy="-1"/>
<feGaussianBlur stdDeviation="1"/>
<feColorMatrix type="matrix" values="0 0 0 0 0.164706 0 0 0 0 0.678431 0 0 0 0 0.454902 0 0 0 0.5 0"/>
<feBlend mode="normal" in2="BackgroundImageFix" result="effect1_dropShadow_1212_8038"/>
<feColorMatrix in="SourceAlpha" type="matrix" values="0 0 0 0 0 0 0 0 0 0 0 0 0 0 0 0 0 0 127 0" result="hardAlpha"/>
<feOffset dx="-1" dy="1"/>
<feGaussianBlur stdDeviation="1"/>
<feColorMatrix type="matrix" values="0 0 0 0 0.211765 0 0 0 0 0.866667 0 0 0 0 0.580392 0 0 0 0.3 0"/>
<feBlend mode="normal" in2="effect1_dropShadow_1212_8038" result="effect2_dropShadow_1212_8038"/>
<feBlend mode="normal" in="SourceGraphic" in2="effect2_dropShadow_1212_8038" result="shape"/>
<feColorMatrix in="SourceAlpha" type="matrix" values="0 0 0 0 0 0 0 0 0 0 0 0 0 0 0 0 0 0 127 0" result="hardAlpha"/>
<feOffset dx="-12" dy="12"/>
<feGaussianBlur stdDeviation="15"/>
<feComposite in2="hardAlpha" operator="arithmetic" k2="-1" k3="1"/>
<feColorMatrix type="matrix" values="0 0 0 0 0.164706 0 0 0 0 0.678431 0 0 0 0 0.454902 0 0 0 0.9 0"/>
<feBlend mode="normal" in2="shape" result="effect3_innerShadow_1212_8038"/>
<feColorMatrix in="SourceAlpha" type="matrix" values="0 0 0 0 0 0 0 0 0 0 0 0 0 0 0 0 0 0 127 0" result="hardAlpha"/>
<feOffset dx="12" dy="-12"/>
<feGaussianBlur stdDeviation="12"/>
<feComposite in2="hardAlpha" operator="arithmetic" k2="-1" k3="1"/>
<feColorMatrix type="matrix" values="0 0 0 0 0.211765 0 0 0 0 0.866667 0 0 0 0 0.580392 0 0 0 0.9 0"/>
<feBlend mode="normal" in2="effect3_innerShadow_1212_8038" result="effect4_innerShadow_1212_8038"/>
<feColorMatrix in="SourceAlpha" type="matrix" values="0 0 0 0 0 0 0 0 0 0 0 0 0 0 0 0 0 0 127 0" result="hardAlpha"/>
<feOffset dx="-12" dy="-12"/>
<feGaussianBlur stdDeviation="12"/>
<feComposite in2="hardAlpha" operator="arithmetic" k2="-1" k3="1"/>
<feColorMatrix type="matrix" values="0 0 0 0 0.164706 0 0 0 0 0.678431 0 0 0 0 0.454902 0 0 0 0.2 0"/>
<feBlend mode="normal" in2="effect4_innerShadow_1212_8038" result="effect5_innerShadow_1212_8038"/>
<feColorMatrix in="SourceAlpha" type="matrix" values="0 0 0 0 0 0 0 0 0 0 0 0 0 0 0 0 0 0 127 0" result="hardAlpha"/>
<feOffset dx="12" dy="12"/>
<feGaussianBlur stdDeviation="12"/>
<feComposite in2="hardAlpha" operator="arithmetic" k2="-1" k3="1"/>
<feColorMatrix type="matrix" values="0 0 0 0 0.164706 0 0 0 0 0.678431 0 0 0 0 0.454902 0 0 0 0.2 0"/>
<feBlend mode="normal" in2="effect5_innerShadow_1212_8038" result="effect6_innerShadow_1212_8038"/>
</filter>
<linearGradient id="paint0_linear_1212_8038" x1="528" y1="136.754" x2="27.1538" y2="479.073" gradientUnits="userSpaceOnUse">
<stop offset="0.234375" stop-color="#7DF7C2"/>
<stop offset="1" stop-color="#30C584"/>
</linearGradient>
<clipPath id="clip0_1212_8038">
<rect x="16" y="136.754" width="512" height="326" rx="25.466" fill="white"/>
</clipPath>
</defs>
</svg>
