<svg width="544" height="538" viewBox="0 0 544 538" fill="none" xmlns="http://www.w3.org/2000/svg">
<path d="M16 92.5602V438.948C16 453.752 28.0016 465.754 42.8063 465.754H501.194C515.998 465.754 528 453.752 528 438.948V147.227C528 132.422 515.998 120.421 501.194 120.421H260.603C250.182 120.421 240.743 114.338 235.291 105.456C225.357 89.2712 207.444 65.7539 187.225 65.7539H42.7644C27.9597 65.7539 16 77.7555 16 92.5602Z" fill="#5249A9"/>
<path d="M528 157.561V429.948C528 444.752 515.998 456.754 501.194 456.754H42.8063C28.0016 456.754 16 444.752 16 429.948V184.699C16 169.895 27.962 157.893 42.7667 157.893H178.178C223.749 157.893 217.382 130.752 248.544 130.754C333.567 130.758 449.546 130.756 501.239 130.755C516.044 130.754 528 142.756 528 157.561Z" fill="#9B90FF"/>
<g clip-path="url(#clip0_1220_8016)">
<g filter="url(#filter0_ddiiii_1220_8016)">
<path d="M322.882 183.63L324.097 186.78L315.817 191.865C314.227 192.285 312.697 192.555 311.227 192.675C309.787 192.795 308.227 192.855 306.547 192.855C302.767 192.855 299.422 192.09 296.512 190.56C293.602 189.03 291.337 186.93 289.717 184.26C288.127 181.56 287.332 178.5 287.332 175.08C287.332 171.57 288.517 168.33 290.887 165.36C293.287 162.36 296.242 160.005 299.752 158.295C303.292 156.555 306.652 155.685 309.832 155.685C311.812 155.685 314.122 155.91 316.762 156.36C319.432 156.81 321.382 157.29 322.612 157.8V169.68H316.852C315.622 166.92 314.182 164.91 312.532 163.65C310.912 162.36 309.142 161.715 307.222 161.715C305.512 161.715 303.937 162.21 302.497 163.2C301.087 164.16 299.962 165.495 299.122 167.205C298.312 168.915 297.907 170.82 297.907 172.92C297.907 175.47 298.312 177.795 299.122 179.895C299.932 181.965 301.177 183.63 302.857 184.89C304.537 186.15 306.607 186.78 309.067 186.78H310.462C311.632 186.78 312.547 186.75 313.207 186.69V178.995L305.827 177.33L307.627 173.73H327.157V176.925L322.882 180.66V183.63ZM357.305 192H346.055V188.085L340.97 192.09C340.37 192.33 339.62 192.45 338.72 192.45C335.66 192.45 333.44 191.715 332.06 190.245C330.71 188.745 330.035 186.945 330.035 184.845C330.035 183.645 330.38 182.475 331.07 181.335C331.76 180.165 332.765 179.085 334.085 178.095H346.055C345.965 176.775 345.515 175.785 344.705 175.125C343.895 174.435 342.875 174.09 341.645 174.09C339.575 174.09 336.545 174.72 332.555 175.98L331.205 172.92L337.37 167.97C339.02 167.4 341 167.115 343.31 167.115C347.03 167.115 349.925 167.94 351.995 169.59C354.065 171.21 355.1 173.595 355.1 176.745V186.825L359.105 188.4L357.305 192ZM341.465 185.025C342.785 185.025 344.315 184.515 346.055 183.495V181.74H339.215C339.065 182.01 338.96 182.25 338.9 182.46C338.84 182.64 338.81 182.88 338.81 183.18C338.81 183.75 339.035 184.2 339.485 184.53C339.965 184.86 340.64 185.025 341.51 185.025H341.465ZM405.114 192H393.864V177.195C393.864 176.205 393.714 175.515 393.414 175.125C393.114 174.735 392.574 174.54 391.794 174.54C390.654 174.54 389.529 174.84 388.419 175.44V187.23L392.019 188.4L390.219 192H379.419V177.195C379.419 176.205 379.269 175.515 378.969 175.125C378.669 174.735 378.129 174.54 377.349 174.54C376.209 174.54 375.084 174.84 373.974 175.44V187.23L377.574 188.4L375.774 192H360.969V188.805L364.974 185.295V176.52L360.969 173.91V170.715L371.364 166.71L373.254 171.57L378.339 167.475C378.999 167.235 379.824 167.115 380.814 167.115C382.584 167.115 384.084 167.49 385.314 168.24C386.544 168.96 387.414 169.995 387.924 171.345L392.739 167.475C393.399 167.235 394.224 167.115 395.214 167.115C397.524 167.115 399.354 167.745 400.704 169.005C402.084 170.235 402.774 171.915 402.774 174.045V187.14L406.914 188.4L405.114 192ZM424.141 167.115C427.471 167.115 430.051 168.36 431.881 170.85C433.711 173.34 434.581 176.88 434.491 181.47H418.606C418.966 182.85 419.566 183.945 420.406 184.755C421.246 185.535 422.311 185.925 423.601 185.925C425.731 185.925 428.911 185.145 433.141 183.585L434.491 186.645L428.326 191.595C426.286 192.165 423.841 192.45 420.991 192.45C418.651 192.45 416.551 191.94 414.691 190.92C412.861 189.87 411.421 188.445 410.371 186.645C409.351 184.815 408.841 182.79 408.841 180.57C408.841 178.17 409.636 175.935 411.226 173.865C412.816 171.795 414.811 170.16 417.211 168.96C419.611 167.73 421.936 167.115 424.186 167.115H424.141ZM421.756 173.145C420.646 173.145 419.806 173.535 419.236 174.315C418.666 175.065 418.351 176.235 418.291 177.825H425.716C425.566 176.235 425.176 175.065 424.546 174.315C423.916 173.535 422.971 173.145 421.711 173.145H421.756ZM450.596 185.79C450.596 185.37 450.251 184.92 449.561 184.44C448.901 183.93 447.836 183.24 446.366 182.37C443.996 180.99 442.151 179.745 440.831 178.635C439.511 177.525 438.851 176.295 438.851 174.945C438.851 173.865 439.406 172.71 440.516 171.48C441.626 170.25 442.976 169.215 444.566 168.375C446.186 167.535 447.671 167.115 449.021 167.115C450.671 167.115 452.591 167.295 454.781 167.655C456.971 167.985 458.561 168.36 459.551 168.78V176.61H456.041C455.321 175.35 454.436 174.36 453.386 173.64C452.336 172.89 451.271 172.515 450.191 172.515C449.771 172.515 449.441 172.635 449.201 172.875C448.991 173.115 448.886 173.415 448.886 173.775C448.886 174.255 449.231 174.765 449.921 175.305C450.641 175.815 451.766 176.52 453.296 177.42C455.606 178.74 457.406 179.94 458.696 181.02C459.986 182.1 460.631 183.3 460.631 184.62C460.631 185.73 460.061 186.9 458.921 188.13C457.781 189.33 456.386 190.35 454.736 191.19C453.086 192.03 451.571 192.45 450.191 192.45C448.451 192.45 446.381 192.285 443.981 191.955C441.581 191.595 439.856 191.205 438.806 190.785V182.505H442.316C443.156 183.915 444.191 185.025 445.421 185.835C446.651 186.645 447.866 187.05 449.066 187.05C449.516 187.05 449.876 186.93 450.146 186.69C450.446 186.45 450.596 186.15 450.596 185.79Z" fill="#5249A9"/>
</g>
<g filter="url(#filter1_ddiiii_1220_8016)">
<path d="M261.503 261.123C207.184 275.965 175.196 332.224 190.088 386.725C204.979 441.225 261.131 473.401 315.45 458.559L446.636 422.715C500.955 407.873 532.943 351.614 518.052 297.113C503.16 242.613 447.008 210.437 392.689 225.278L261.503 261.123ZM443.136 313.163C431.811 316.257 420.123 309.56 417.019 298.197C413.914 286.834 420.572 275.124 431.897 272.03C443.222 268.936 454.909 275.633 458.014 286.996C461.119 298.358 454.461 310.068 443.136 313.163ZM438.704 345.316C441.809 356.679 435.151 368.388 423.826 371.483C412.501 374.577 400.814 367.88 397.709 356.517C394.604 345.154 401.262 333.445 412.587 330.35C423.912 327.256 435.6 333.953 438.704 345.316ZM268.311 334.409C266.442 327.571 270.422 320.571 277.238 318.709C284.053 316.846 291.04 320.85 292.908 327.688C295.383 336.744 304.745 342.135 313.802 339.66C320.617 337.798 327.604 341.802 329.472 348.64C331.341 355.478 327.361 362.478 320.545 364.34C311.489 366.815 306.168 376.217 308.643 385.274C310.511 392.112 306.531 399.112 299.716 400.974C292.9 402.836 285.914 398.833 284.045 391.994C281.571 382.938 272.208 377.547 263.152 380.022C256.336 381.884 249.35 377.881 247.481 371.043C245.613 364.204 249.593 357.205 256.408 355.342C265.465 352.868 270.785 343.465 268.311 334.409Z" fill="#5249A9"/>
</g>
</g>
<defs>
<filter id="filter0_ddiiii_1220_8016" x="275.332" y="143.685" width="197.299" height="61.1699" filterUnits="userSpaceOnUse" color-interpolation-filters="sRGB">
<feFlood flood-opacity="0" result="BackgroundImageFix"/>
<feColorMatrix in="SourceAlpha" type="matrix" values="0 0 0 0 0 0 0 0 0 0 0 0 0 0 0 0 0 0 127 0" result="hardAlpha"/>
<feOffset dx="1" dy="-1"/>
<feGaussianBlur stdDeviation="1"/>
<feColorMatrix type="matrix" values="0 0 0 0 0.282353 0 0 0 0 0.25098 0 0 0 0 0.584314 0 0 0 0.5 0"/>
<feBlend mode="normal" in2="BackgroundImageFix" result="effect1_dropShadow_1220_8016"/>
<feColorMatrix in="SourceAlpha" type="matrix" values="0 0 0 0 0 0 0 0 0 0 0 0 0 0 0 0 0 0 127 0" result="hardAlpha"/>
<feOffset dx="-1" dy="1"/>
<feGaussianBlur stdDeviation="1"/>
<feColorMatrix type="matrix" values="0 0 0 0 0.360784 0 0 0 0 0.321569 0 0 0 0 0.741176 0 0 0 0.3 0"/>
<feBlend mode="normal" in2="effect1_dropShadow_1220_8016" result="effect2_dropShadow_1220_8016"/>
<feBlend mode="normal" in="SourceGraphic" in2="effect2_dropShadow_1220_8016" result="shape"/>
<feColorMatrix in="SourceAlpha" type="matrix" values="0 0 0 0 0 0 0 0 0 0 0 0 0 0 0 0 0 0 127 0" result="hardAlpha"/>
<feOffset dx="-12" dy="12"/>
<feGaussianBlur stdDeviation="15"/>
<feComposite in2="hardAlpha" operator="arithmetic" k2="-1" k3="1"/>
<feColorMatrix type="matrix" values="0 0 0 0 0.282353 0 0 0 0 0.25098 0 0 0 0 0.584314 0 0 0 0.9 0"/>
<feBlend mode="normal" in2="shape" result="effect3_innerShadow_1220_8016"/>
<feColorMatrix in="SourceAlpha" type="matrix" values="0 0 0 0 0 0 0 0 0 0 0 0 0 0 0 0 0 0 127 0" result="hardAlpha"/>
<feOffset dx="12" dy="-12"/>
<feGaussianBlur stdDeviation="12"/>
<feComposite in2="hardAlpha" operator="arithmetic" k2="-1" k3="1"/>
<feColorMatrix type="matrix" values="0 0 0 0 0.360784 0 0 0 0 0.321569 0 0 0 0 0.741176 0 0 0 0.9 0"/>
<feBlend mode="normal" in2="effect3_innerShadow_1220_8016" result="effect4_innerShadow_1220_8016"/>
<feColorMatrix in="SourceAlpha" type="matrix" values="0 0 0 0 0 0 0 0 0 0 0 0 0 0 0 0 0 0 127 0" result="hardAlpha"/>
<feOffset dx="-12" dy="-12"/>
<feGaussianBlur stdDeviation="12"/>
<feComposite in2="hardAlpha" operator="arithmetic" k2="-1" k3="1"/>
<feColorMatrix type="matrix" values="0 0 0 0 0.282353 0 0 0 0 0.25098 0 0 0 0 0.584314 0 0 0 0.2 0"/>
<feBlend mode="normal" in2="effect4_innerShadow_1220_8016" result="effect5_innerShadow_1220_8016"/>
<feColorMatrix in="SourceAlpha" type="matrix" values="0 0 0 0 0 0 0 0 0 0 0 0 0 0 0 0 0 0 127 0" result="hardAlpha"/>
<feOffset dx="12" dy="12"/>
<feGaussianBlur stdDeviation="12"/>
<feComposite in2="hardAlpha" operator="arithmetic" k2="-1" k3="1"/>
<feColorMatrix type="matrix" values="0 0 0 0 0.282353 0 0 0 0 0.25098 0 0 0 0 0.584314 0 0 0 0.2 0"/>
<feBlend mode="normal" in2="effect5_innerShadow_1220_8016" result="effect6_innerShadow_1220_8016"/>
</filter>
<filter id="filter1_ddiiii_1220_8016" x="174.435" y="209.661" width="359.27" height="264.516" filterUnits="userSpaceOnUse" color-interpolation-filters="sRGB">
<feFlood flood-opacity="0" result="BackgroundImageFix"/>
<feColorMatrix in="SourceAlpha" type="matrix" values="0 0 0 0 0 0 0 0 0 0 0 0 0 0 0 0 0 0 127 0" result="hardAlpha"/>
<feOffset dx="1" dy="-1"/>
<feGaussianBlur stdDeviation="1"/>
<feColorMatrix type="matrix" values="0 0 0 0 0.282353 0 0 0 0 0.25098 0 0 0 0 0.584314 0 0 0 0.5 0"/>
<feBlend mode="normal" in2="BackgroundImageFix" result="effect1_dropShadow_1220_8016"/>
<feColorMatrix in="SourceAlpha" type="matrix" values="0 0 0 0 0 0 0 0 0 0 0 0 0 0 0 0 0 0 127 0" result="hardAlpha"/>
<feOffset dx="-1" dy="1"/>
<feGaussianBlur stdDeviation="1"/>
<feColorMatrix type="matrix" values="0 0 0 0 0.360784 0 0 0 0 0.321569 0 0 0 0 0.741176 0 0 0 0.3 0"/>
<feBlend mode="normal" in2="effect1_dropShadow_1220_8016" result="effect2_dropShadow_1220_8016"/>
<feBlend mode="normal" in="SourceGraphic" in2="effect2_dropShadow_1220_8016" result="shape"/>
<feColorMatrix in="SourceAlpha" type="matrix" values="0 0 0 0 0 0 0 0 0 0 0 0 0 0 0 0 0 0 127 0" result="hardAlpha"/>
<feOffset dx="-12" dy="12"/>
<feGaussianBlur stdDeviation="15"/>
<feComposite in2="hardAlpha" operator="arithmetic" k2="-1" k3="1"/>
<feColorMatrix type="matrix" values="0 0 0 0 0.282353 0 0 0 0 0.25098 0 0 0 0 0.584314 0 0 0 0.9 0"/>
<feBlend mode="normal" in2="shape" result="effect3_innerShadow_1220_8016"/>
<feColorMatrix in="SourceAlpha" type="matrix" values="0 0 0 0 0 0 0 0 0 0 0 0 0 0 0 0 0 0 127 0" result="hardAlpha"/>
<feOffset dx="12" dy="-12"/>
<feGaussianBlur stdDeviation="12"/>
<feComposite in2="hardAlpha" operator="arithmetic" k2="-1" k3="1"/>
<feColorMatrix type="matrix" values="0 0 0 0 0.360784 0 0 0 0 0.321569 0 0 0 0 0.741176 0 0 0 0.9 0"/>
<feBlend mode="normal" in2="effect3_innerShadow_1220_8016" result="effect4_innerShadow_1220_8016"/>
<feColorMatrix in="SourceAlpha" type="matrix" values="0 0 0 0 0 0 0 0 0 0 0 0 0 0 0 0 0 0 127 0" result="hardAlpha"/>
<feOffset dx="-12" dy="-12"/>
<feGaussianBlur stdDeviation="12"/>
<feComposite in2="hardAlpha" operator="arithmetic" k2="-1" k3="1"/>
<feColorMatrix type="matrix" values="0 0 0 0 0.282353 0 0 0 0 0.25098 0 0 0 0 0.584314 0 0 0 0.2 0"/>
<feBlend mode="normal" in2="effect4_innerShadow_1220_8016" result="effect5_innerShadow_1220_8016"/>
<feColorMatrix in="SourceAlpha" type="matrix" values="0 0 0 0 0 0 0 0 0 0 0 0 0 0 0 0 0 0 127 0" result="hardAlpha"/>
<feOffset dx="12" dy="12"/>
<feGaussianBlur stdDeviation="12"/>
<feComposite in2="hardAlpha" operator="arithmetic" k2="-1" k3="1"/>
<feColorMatrix type="matrix" values="0 0 0 0 0.282353 0 0 0 0 0.25098 0 0 0 0 0.584314 0 0 0 0.2 0"/>
<feBlend mode="normal" in2="effect5_innerShadow_1220_8016" result="effect6_innerShadow_1220_8016"/>
</filter>
<clipPath id="clip0_1220_8016">
<rect x="16" y="131" width="512" height="334" rx="25.466" fill="white"/>
</clipPath>
</defs>
</svg>
