<svg width="544" height="544" viewBox="0 0 544 544" fill="none" xmlns="http://www.w3.org/2000/svg">
<path d="M16 98.5602V444.948C16 459.752 28.0016 471.754 42.8063 471.754H501.194C515.998 471.754 528 459.752 528 444.948V153.227C528 138.422 515.998 126.421 501.194 126.421H260.603C250.182 126.421 240.743 120.338 235.291 111.456C225.357 95.2712 207.444 71.7539 187.225 71.7539H42.7644C27.9597 71.7539 16 83.7555 16 98.5602Z" fill="#60696B"/>
<path d="M528 171.561V443.948C528 458.752 515.998 470.754 501.194 470.754H42.8063C28.0016 470.754 16 458.752 16 443.948V198.699C16 183.895 27.962 171.893 42.7667 171.893H178.178C223.749 171.893 217.382 144.752 248.544 144.754C333.567 144.758 449.546 144.756 501.239 144.755C516.044 144.754 528 156.756 528 171.561Z" fill="url(#paint0_linear_1210_8165)"/>
<g filter="url(#filter0_ddiiii_1210_8165)">
<path d="M497.937 299.791C497.937 307.314 491.687 313.208 484.603 313.208H471.268L471.56 380.166C471.56 381.295 471.477 382.423 471.351 383.552V390.281C471.351 399.518 463.893 407 454.683 407H448.016C447.558 407 447.099 407 446.641 406.958C446.058 407 445.474 407 444.891 407H431.348H421.347C412.138 407 404.679 399.518 404.679 390.281V380.25V353.5C404.679 346.102 398.72 340.125 391.345 340.125H364.676C357.3 340.125 351.341 346.102 351.341 353.5V380.25V390.281C351.341 399.518 343.882 407 334.673 407H324.672H311.38C310.754 407 310.129 406.958 309.504 406.916C309.004 406.958 308.504 407 308.004 407H301.337C292.128 407 284.669 399.518 284.669 390.281V343.469C284.669 343.093 284.669 342.675 284.711 342.298V313.208H271.334C263.834 313.208 258 307.356 258 299.791C258 296.029 259.25 292.686 262.167 289.76L369.009 196.344C371.926 193.418 375.26 193 378.177 193C381.094 193 384.427 193.836 386.928 195.926L493.353 289.76C496.687 292.686 498.354 296.029 497.937 299.791Z" fill="#60696B"/>
</g>
<defs>
<filter id="filter0_ddiiii_1210_8165" x="246" y="181" width="264" height="238" filterUnits="userSpaceOnUse" color-interpolation-filters="sRGB">
<feFlood flood-opacity="0" result="BackgroundImageFix"/>
<feColorMatrix in="SourceAlpha" type="matrix" values="0 0 0 0 0 0 0 0 0 0 0 0 0 0 0 0 0 0 127 0" result="hardAlpha"/>
<feOffset dx="1" dy="-1"/>
<feGaussianBlur stdDeviation="1"/>
<feColorMatrix type="matrix" values="0 0 0 0 0.329412 0 0 0 0 0.360784 0 0 0 0 0.368627 0 0 0 0.5 0"/>
<feBlend mode="normal" in2="BackgroundImageFix" result="effect1_dropShadow_1210_8165"/>
<feColorMatrix in="SourceAlpha" type="matrix" values="0 0 0 0 0 0 0 0 0 0 0 0 0 0 0 0 0 0 127 0" result="hardAlpha"/>
<feOffset dx="-1" dy="1"/>
<feGaussianBlur stdDeviation="1"/>
<feColorMatrix type="matrix" values="0 0 0 0 0.423529 0 0 0 0 0.462745 0 0 0 0 0.470588 0 0 0 0.3 0"/>
<feBlend mode="normal" in2="effect1_dropShadow_1210_8165" result="effect2_dropShadow_1210_8165"/>
<feBlend mode="normal" in="SourceGraphic" in2="effect2_dropShadow_1210_8165" result="shape"/>
<feColorMatrix in="SourceAlpha" type="matrix" values="0 0 0 0 0 0 0 0 0 0 0 0 0 0 0 0 0 0 127 0" result="hardAlpha"/>
<feOffset dx="-12" dy="12"/>
<feGaussianBlur stdDeviation="15"/>
<feComposite in2="hardAlpha" operator="arithmetic" k2="-1" k3="1"/>
<feColorMatrix type="matrix" values="0 0 0 0 0.329412 0 0 0 0 0.360784 0 0 0 0 0.368627 0 0 0 0.9 0"/>
<feBlend mode="normal" in2="shape" result="effect3_innerShadow_1210_8165"/>
<feColorMatrix in="SourceAlpha" type="matrix" values="0 0 0 0 0 0 0 0 0 0 0 0 0 0 0 0 0 0 127 0" result="hardAlpha"/>
<feOffset dx="12" dy="-12"/>
<feGaussianBlur stdDeviation="12"/>
<feComposite in2="hardAlpha" operator="arithmetic" k2="-1" k3="1"/>
<feColorMatrix type="matrix" values="0 0 0 0 0.423529 0 0 0 0 0.462745 0 0 0 0 0.470588 0 0 0 0.9 0"/>
<feBlend mode="normal" in2="effect3_innerShadow_1210_8165" result="effect4_innerShadow_1210_8165"/>
<feColorMatrix in="SourceAlpha" type="matrix" values="0 0 0 0 0 0 0 0 0 0 0 0 0 0 0 0 0 0 127 0" result="hardAlpha"/>
<feOffset dx="-12" dy="-12"/>
<feGaussianBlur stdDeviation="12"/>
<feComposite in2="hardAlpha" operator="arithmetic" k2="-1" k3="1"/>
<feColorMatrix type="matrix" values="0 0 0 0 0.329412 0 0 0 0 0.360784 0 0 0 0 0.368627 0 0 0 0.2 0"/>
<feBlend mode="normal" in2="effect4_innerShadow_1210_8165" result="effect5_innerShadow_1210_8165"/>
<feColorMatrix in="SourceAlpha" type="matrix" values="0 0 0 0 0 0 0 0 0 0 0 0 0 0 0 0 0 0 127 0" result="hardAlpha"/>
<feOffset dx="12" dy="12"/>
<feGaussianBlur stdDeviation="12"/>
<feComposite in2="hardAlpha" operator="arithmetic" k2="-1" k3="1"/>
<feColorMatrix type="matrix" values="0 0 0 0 0.329412 0 0 0 0 0.360784 0 0 0 0 0.368627 0 0 0 0.2 0"/>
<feBlend mode="normal" in2="effect5_innerShadow_1210_8165" result="effect6_innerShadow_1210_8165"/>
</filter>
<linearGradient id="paint0_linear_1210_8165" x1="528" y1="144.754" x2="27.1538" y2="487.073" gradientUnits="userSpaceOnUse">
<stop offset="0.234375" stop-color="#858E96"/>
<stop offset="1" stop-color="#60696B"/>
</linearGradient>
</defs>
</svg>
