<svg width="544" height="544" viewBox="0 0 544 544" fill="none" xmlns="http://www.w3.org/2000/svg">
<path d="M16 98.5602V444.948C16 459.752 28.0016 471.754 42.8063 471.754H501.194C515.998 471.754 528 459.752 528 444.948V153.227C528 138.422 515.998 126.421 501.194 126.421H260.603C250.182 126.421 240.743 120.338 235.291 111.456C225.357 95.2712 207.444 71.7539 187.225 71.7539H42.7644C27.9597 71.7539 16 83.7555 16 98.5602Z" fill="#438DA6"/>
<path d="M528 163.561V435.948C528 450.752 515.998 462.754 501.194 462.754H42.8063C28.0016 462.754 16 450.752 16 435.948V190.699C16 175.895 27.962 163.893 42.7667 163.893H178.178C223.749 163.893 217.382 136.752 248.544 136.754C333.567 136.758 449.546 136.756 501.239 136.755C516.044 136.754 528 148.756 528 163.561Z" fill="#65CDE3"/>
<g clip-path="url(#clip0_1220_8004)">
<g filter="url(#filter0_ddiiii_1220_8004)">
<path d="M286.976 161.73C290.576 161.73 293.756 162.495 296.516 164.025C299.276 165.555 301.406 167.67 302.906 170.37C304.406 173.07 305.156 176.13 305.156 179.55C305.156 183.06 304.016 186.3 301.736 189.27C299.486 192.24 296.681 194.595 293.321 196.335C289.961 198.045 286.781 198.9 283.781 198.9C280.181 198.9 277.001 198.15 274.241 196.65C271.511 195.12 269.381 193.005 267.851 190.305C266.351 187.605 265.601 184.545 265.601 181.125C265.601 177.615 266.726 174.375 268.976 171.405C271.256 168.405 274.076 166.05 277.436 164.34C280.796 162.6 283.976 161.73 286.976 161.73ZM284.366 167.76C282.866 167.76 281.486 168.255 280.226 169.245C278.996 170.205 278.006 171.54 277.256 173.25C276.536 174.96 276.176 176.865 276.176 178.965C276.176 181.515 276.551 183.84 277.301 185.94C278.051 188.04 279.191 189.72 280.721 190.98C282.281 192.24 284.171 192.87 286.391 192.87C287.891 192.87 289.256 192.39 290.486 191.43C291.746 190.44 292.736 189.09 293.456 187.38C294.206 185.67 294.581 183.765 294.581 181.665C294.581 179.085 294.206 176.745 293.456 174.645C292.706 172.545 291.566 170.88 290.036 169.65C288.506 168.39 286.616 167.76 284.366 167.76ZM339.514 197.955H328.264V184.05C328.264 182.76 328.069 181.845 327.679 181.305C327.319 180.765 326.674 180.495 325.744 180.495C324.454 180.495 323.194 180.81 321.964 181.44V193.14L326.014 194.4L324.214 198H308.959V194.805L312.964 191.295V182.52L308.959 179.91V176.715L319.354 172.71L321.244 177.57L326.329 173.475C327.139 173.235 328.114 173.115 329.254 173.115C331.714 173.115 333.664 173.745 335.104 175.005C336.544 176.235 337.264 177.915 337.264 180.045V193.14L341.314 194.355L339.514 197.955ZM366.55 178.515C366.91 179.325 367.09 180.18 367.09 181.08C367.09 182.85 366.325 184.575 364.795 186.255C363.295 187.905 361.39 189.195 359.08 190.125C358.3 191.085 357.91 192 357.91 192.87C357.91 193.26 358.195 193.65 358.765 194.04C359.365 194.4 360.34 194.91 361.69 195.57C363.67 196.5 365.2 197.355 366.28 198.135C367.39 198.945 367.945 199.875 367.945 200.925C367.945 201.885 367.33 203.085 366.1 204.525C364.87 205.995 363.34 207.255 361.51 208.305C359.71 209.385 357.94 209.925 356.2 209.925C354.25 209.925 351.955 209.64 349.315 209.07C346.675 208.5 344.47 207.93 342.7 207.36V198.63H346.21C347.53 200.55 348.88 202.005 350.26 202.995C351.64 204.015 353.215 204.525 354.985 204.525C355.855 204.525 356.575 204.375 357.145 204.075C357.715 203.805 358 203.505 358 203.175C358 202.545 357.64 201.975 356.92 201.465C356.2 200.985 355.105 200.415 353.635 199.755C351.955 198.975 350.665 198.27 349.765 197.64C348.895 197.01 348.46 196.26 348.46 195.39C348.46 194.67 349.06 193.935 350.26 193.185C351.46 192.435 352.885 191.775 354.535 191.205C354.265 191.235 353.86 191.25 353.32 191.25C351.37 191.25 349.57 190.89 347.92 190.17C346.3 189.42 345.01 188.43 344.05 187.2C343.12 185.97 342.655 184.665 342.655 183.285C342.655 181.545 343.33 179.895 344.68 178.335C346.03 176.775 347.77 175.515 349.9 174.555C352.03 173.595 354.19 173.115 356.38 173.115C358.93 173.115 361.195 173.715 363.175 174.915H370.78L370.87 178.515H366.55ZM351.52 181.035C351.52 182.235 351.925 183.225 352.735 184.005C353.575 184.785 354.655 185.175 355.975 185.175C356.725 185.175 357.295 185.01 357.685 184.68C358.105 184.32 358.315 183.81 358.315 183.15C358.315 181.89 357.895 180.9 357.055 180.18C356.245 179.46 355.165 179.1 353.815 179.1C352.285 179.1 351.52 179.745 351.52 181.035ZM387.909 173.115C390.249 173.115 392.334 173.64 394.164 174.69C396.024 175.71 397.464 177.135 398.484 178.965C399.534 180.765 400.059 182.775 400.059 184.995C400.059 187.395 399.264 189.63 397.674 191.7C396.084 193.77 394.089 195.42 391.689 196.65C389.289 197.85 386.964 198.45 384.714 198.45C382.374 198.45 380.274 197.94 378.414 196.92C376.584 195.87 375.144 194.445 374.094 192.645C373.074 190.815 372.564 188.79 372.564 186.57C372.564 184.17 373.359 181.935 374.949 179.865C376.539 177.795 378.534 176.16 380.934 174.96C383.334 173.73 385.659 173.115 387.909 173.115ZM385.299 179.145C384.339 179.145 383.589 179.595 383.049 180.495C382.539 181.365 382.284 182.67 382.284 184.41C382.284 186.75 382.719 188.67 383.589 190.17C384.489 191.67 385.734 192.42 387.324 192.42C388.284 192.42 389.019 191.97 389.529 191.07C390.069 190.17 390.339 188.85 390.339 187.11C390.339 184.77 389.889 182.865 388.989 181.395C388.119 179.895 386.889 179.145 385.299 179.145ZM418.697 198H403.442V194.805L407.447 191.295V182.52L403.442 179.91V176.715L412.937 172.71H416.447V193.14L420.497 194.4L418.697 198ZM411.992 159.075C413.492 159.075 414.722 159.54 415.682 160.47C416.672 161.4 417.167 162.555 417.167 163.935C417.167 164.895 416.807 165.795 416.087 166.635C415.397 167.475 414.527 168.15 413.477 168.66C412.427 169.17 411.407 169.425 410.417 169.425C408.947 169.425 407.717 168.96 406.727 168.03C405.737 167.1 405.242 165.96 405.242 164.61C405.242 163.65 405.587 162.75 406.277 161.91C406.997 161.04 407.882 160.35 408.932 159.84C409.982 159.33 411.002 159.075 411.992 159.075ZM452.849 197.955H441.599V184.05C441.599 182.76 441.404 181.845 441.014 181.305C440.654 180.765 440.009 180.495 439.079 180.495C437.789 180.495 436.529 180.81 435.299 181.44V193.14L439.349 194.4L437.549 198H422.294V194.805L426.299 191.295V182.52L422.294 179.91V176.715L432.689 172.71L434.579 177.57L439.664 173.475C440.474 173.235 441.449 173.115 442.589 173.115C445.049 173.115 446.999 173.745 448.439 175.005C449.879 176.235 450.599 177.915 450.599 180.045V193.14L454.649 194.355L452.849 197.955ZM479.885 178.515C480.245 179.325 480.425 180.18 480.425 181.08C480.425 182.85 479.66 184.575 478.13 186.255C476.63 187.905 474.725 189.195 472.415 190.125C471.635 191.085 471.245 192 471.245 192.87C471.245 193.26 471.53 193.65 472.1 194.04C472.7 194.4 473.675 194.91 475.025 195.57C477.005 196.5 478.535 197.355 479.615 198.135C480.725 198.945 481.28 199.875 481.28 200.925C481.28 201.885 480.665 203.085 479.435 204.525C478.205 205.995 476.675 207.255 474.845 208.305C473.045 209.385 471.275 209.925 469.535 209.925C467.585 209.925 465.29 209.64 462.65 209.07C460.01 208.5 457.805 207.93 456.035 207.36V198.63H459.545C460.865 200.55 462.215 202.005 463.595 202.995C464.975 204.015 466.55 204.525 468.32 204.525C469.19 204.525 469.91 204.375 470.48 204.075C471.05 203.805 471.335 203.505 471.335 203.175C471.335 202.545 470.975 201.975 470.255 201.465C469.535 200.985 468.44 200.415 466.97 199.755C465.29 198.975 464 198.27 463.1 197.64C462.23 197.01 461.795 196.26 461.795 195.39C461.795 194.67 462.395 193.935 463.595 193.185C464.795 192.435 466.22 191.775 467.87 191.205C467.6 191.235 467.195 191.25 466.655 191.25C464.705 191.25 462.905 190.89 461.255 190.17C459.635 189.42 458.345 188.43 457.385 187.2C456.455 185.97 455.99 184.665 455.99 183.285C455.99 181.545 456.665 179.895 458.015 178.335C459.365 176.775 461.105 175.515 463.235 174.555C465.365 173.595 467.525 173.115 469.715 173.115C472.265 173.115 474.53 173.715 476.51 174.915H484.115L484.205 178.515H479.885ZM464.855 181.035C464.855 182.235 465.26 183.225 466.07 184.005C466.91 184.785 467.99 185.175 469.31 185.175C470.06 185.175 470.63 185.01 471.02 184.68C471.44 184.32 471.65 183.81 471.65 183.15C471.65 181.89 471.23 180.9 470.39 180.18C469.58 179.46 468.5 179.1 467.15 179.1C465.62 179.1 464.855 179.745 464.855 181.035Z" fill="#438DA6"/>
</g>
<g filter="url(#filter1_ddiiii_1220_8004)">
<path fill-rule="evenodd" clip-rule="evenodd" d="M255.175 290.087C255.02 290.147 254.546 290.274 254.121 290.372C252.108 290.834 250.515 293.213 250.515 295.76V297.481L263.619 321.112L276.723 344.744L273.574 346.638C230.395 372.612 204.169 415.533 198.138 470.094L198 471.344H352.5H507L506.809 469.065C502.449 417.153 474.401 372.579 428.735 344.992C428.427 344.806 431.204 339.585 441.134 321.688C455.354 296.059 454.801 297.145 454.618 295.158C454.193 290.557 448.859 288.479 445.597 291.645C445.178 292.052 438.951 303.017 431.76 316.013C422.233 333.229 418.569 339.607 418.26 339.513C418.027 339.442 415.994 338.568 413.742 337.57C375.981 320.842 329.039 320.965 290.548 337.892C288.354 338.857 286.471 339.545 286.363 339.421C286.255 339.297 280.418 328.81 273.391 316.117C266.364 303.424 260.319 292.628 259.958 292.125C259.034 290.838 256.283 289.666 255.175 290.087ZM284.535 399.179C294.247 401.813 297.497 414.375 290.311 421.511C282.783 428.986 270.615 424.775 268.885 414.097C267.407 404.98 275.938 396.848 284.535 399.179ZM426.537 399.167C435.282 401.538 439.074 411.738 434.095 419.499C427.206 430.24 410.918 425.041 410.918 412.1C410.918 403.486 418.7 397.042 426.537 399.167Z" fill="#438DA6"/>
</g>
</g>
<defs>
<filter id="filter0_ddiiii_1220_8004" x="253.601" y="147.075" width="242.604" height="74.8496" filterUnits="userSpaceOnUse" color-interpolation-filters="sRGB">
<feFlood flood-opacity="0" result="BackgroundImageFix"/>
<feColorMatrix in="SourceAlpha" type="matrix" values="0 0 0 0 0 0 0 0 0 0 0 0 0 0 0 0 0 0 127 0" result="hardAlpha"/>
<feOffset dx="1" dy="-1"/>
<feGaussianBlur stdDeviation="1"/>
<feColorMatrix type="matrix" values="0 0 0 0 0.231373 0 0 0 0 0.486275 0 0 0 0 0.572549 0 0 0 0.5 0"/>
<feBlend mode="normal" in2="BackgroundImageFix" result="effect1_dropShadow_1220_8004"/>
<feColorMatrix in="SourceAlpha" type="matrix" values="0 0 0 0 0 0 0 0 0 0 0 0 0 0 0 0 0 0 127 0" result="hardAlpha"/>
<feOffset dx="-1" dy="1"/>
<feGaussianBlur stdDeviation="1"/>
<feColorMatrix type="matrix" values="0 0 0 0 0.294118 0 0 0 0 0.619608 0 0 0 0 0.729412 0 0 0 0.3 0"/>
<feBlend mode="normal" in2="effect1_dropShadow_1220_8004" result="effect2_dropShadow_1220_8004"/>
<feBlend mode="normal" in="SourceGraphic" in2="effect2_dropShadow_1220_8004" result="shape"/>
<feColorMatrix in="SourceAlpha" type="matrix" values="0 0 0 0 0 0 0 0 0 0 0 0 0 0 0 0 0 0 127 0" result="hardAlpha"/>
<feOffset dx="-12" dy="12"/>
<feGaussianBlur stdDeviation="15"/>
<feComposite in2="hardAlpha" operator="arithmetic" k2="-1" k3="1"/>
<feColorMatrix type="matrix" values="0 0 0 0 0.231373 0 0 0 0 0.486275 0 0 0 0 0.572549 0 0 0 0.9 0"/>
<feBlend mode="normal" in2="shape" result="effect3_innerShadow_1220_8004"/>
<feColorMatrix in="SourceAlpha" type="matrix" values="0 0 0 0 0 0 0 0 0 0 0 0 0 0 0 0 0 0 127 0" result="hardAlpha"/>
<feOffset dx="12" dy="-12"/>
<feGaussianBlur stdDeviation="12"/>
<feComposite in2="hardAlpha" operator="arithmetic" k2="-1" k3="1"/>
<feColorMatrix type="matrix" values="0 0 0 0 0.294118 0 0 0 0 0.619608 0 0 0 0 0.729412 0 0 0 0.9 0"/>
<feBlend mode="normal" in2="effect3_innerShadow_1220_8004" result="effect4_innerShadow_1220_8004"/>
<feColorMatrix in="SourceAlpha" type="matrix" values="0 0 0 0 0 0 0 0 0 0 0 0 0 0 0 0 0 0 127 0" result="hardAlpha"/>
<feOffset dx="-12" dy="-12"/>
<feGaussianBlur stdDeviation="12"/>
<feComposite in2="hardAlpha" operator="arithmetic" k2="-1" k3="1"/>
<feColorMatrix type="matrix" values="0 0 0 0 0.231373 0 0 0 0 0.486275 0 0 0 0 0.572549 0 0 0 0.2 0"/>
<feBlend mode="normal" in2="effect4_innerShadow_1220_8004" result="effect5_innerShadow_1220_8004"/>
<feColorMatrix in="SourceAlpha" type="matrix" values="0 0 0 0 0 0 0 0 0 0 0 0 0 0 0 0 0 0 127 0" result="hardAlpha"/>
<feOffset dx="12" dy="12"/>
<feGaussianBlur stdDeviation="12"/>
<feComposite in2="hardAlpha" operator="arithmetic" k2="-1" k3="1"/>
<feColorMatrix type="matrix" values="0 0 0 0 0.231373 0 0 0 0 0.486275 0 0 0 0 0.572549 0 0 0 0.2 0"/>
<feBlend mode="normal" in2="effect5_innerShadow_1220_8004" result="effect6_innerShadow_1220_8004"/>
</filter>
<filter id="filter1_ddiiii_1220_8004" x="186" y="278" width="333" height="205.344" filterUnits="userSpaceOnUse" color-interpolation-filters="sRGB">
<feFlood flood-opacity="0" result="BackgroundImageFix"/>
<feColorMatrix in="SourceAlpha" type="matrix" values="0 0 0 0 0 0 0 0 0 0 0 0 0 0 0 0 0 0 127 0" result="hardAlpha"/>
<feOffset dx="1" dy="-1"/>
<feGaussianBlur stdDeviation="1"/>
<feColorMatrix type="matrix" values="0 0 0 0 0.231373 0 0 0 0 0.486275 0 0 0 0 0.572549 0 0 0 0.5 0"/>
<feBlend mode="normal" in2="BackgroundImageFix" result="effect1_dropShadow_1220_8004"/>
<feColorMatrix in="SourceAlpha" type="matrix" values="0 0 0 0 0 0 0 0 0 0 0 0 0 0 0 0 0 0 127 0" result="hardAlpha"/>
<feOffset dx="-1" dy="1"/>
<feGaussianBlur stdDeviation="1"/>
<feColorMatrix type="matrix" values="0 0 0 0 0.294118 0 0 0 0 0.619608 0 0 0 0 0.729412 0 0 0 0.3 0"/>
<feBlend mode="normal" in2="effect1_dropShadow_1220_8004" result="effect2_dropShadow_1220_8004"/>
<feBlend mode="normal" in="SourceGraphic" in2="effect2_dropShadow_1220_8004" result="shape"/>
<feColorMatrix in="SourceAlpha" type="matrix" values="0 0 0 0 0 0 0 0 0 0 0 0 0 0 0 0 0 0 127 0" result="hardAlpha"/>
<feOffset dx="-12" dy="12"/>
<feGaussianBlur stdDeviation="15"/>
<feComposite in2="hardAlpha" operator="arithmetic" k2="-1" k3="1"/>
<feColorMatrix type="matrix" values="0 0 0 0 0.231373 0 0 0 0 0.486275 0 0 0 0 0.572549 0 0 0 0.9 0"/>
<feBlend mode="normal" in2="shape" result="effect3_innerShadow_1220_8004"/>
<feColorMatrix in="SourceAlpha" type="matrix" values="0 0 0 0 0 0 0 0 0 0 0 0 0 0 0 0 0 0 127 0" result="hardAlpha"/>
<feOffset dx="12" dy="-12"/>
<feGaussianBlur stdDeviation="12"/>
<feComposite in2="hardAlpha" operator="arithmetic" k2="-1" k3="1"/>
<feColorMatrix type="matrix" values="0 0 0 0 0.294118 0 0 0 0 0.619608 0 0 0 0 0.729412 0 0 0 0.9 0"/>
<feBlend mode="normal" in2="effect3_innerShadow_1220_8004" result="effect4_innerShadow_1220_8004"/>
<feColorMatrix in="SourceAlpha" type="matrix" values="0 0 0 0 0 0 0 0 0 0 0 0 0 0 0 0 0 0 127 0" result="hardAlpha"/>
<feOffset dx="-12" dy="-12"/>
<feGaussianBlur stdDeviation="12"/>
<feComposite in2="hardAlpha" operator="arithmetic" k2="-1" k3="1"/>
<feColorMatrix type="matrix" values="0 0 0 0 0.231373 0 0 0 0 0.486275 0 0 0 0 0.572549 0 0 0 0.2 0"/>
<feBlend mode="normal" in2="effect4_innerShadow_1220_8004" result="effect5_innerShadow_1220_8004"/>
<feColorMatrix in="SourceAlpha" type="matrix" values="0 0 0 0 0 0 0 0 0 0 0 0 0 0 0 0 0 0 127 0" result="hardAlpha"/>
<feOffset dx="12" dy="12"/>
<feGaussianBlur stdDeviation="12"/>
<feComposite in2="hardAlpha" operator="arithmetic" k2="-1" k3="1"/>
<feColorMatrix type="matrix" values="0 0 0 0 0.231373 0 0 0 0 0.486275 0 0 0 0 0.572549 0 0 0 0.2 0"/>
<feBlend mode="normal" in2="effect5_innerShadow_1220_8004" result="effect6_innerShadow_1220_8004"/>
</filter>
<clipPath id="clip0_1220_8004">
<rect x="16" y="137" width="512" height="334" rx="25.466" fill="white"/>
</clipPath>
</defs>
</svg>
