<svg width="544" height="544" viewBox="0 0 544 544" fill="none" xmlns="http://www.w3.org/2000/svg">
<path d="M16 98.5602V444.948C16 459.752 28.0016 471.754 42.8063 471.754H501.194C515.998 471.754 528 459.752 528 444.948V153.227C528 138.422 515.998 126.421 501.194 126.421H260.603C250.182 126.421 240.743 120.338 235.291 111.456C225.357 95.2712 207.444 71.7539 187.225 71.7539H42.7644C27.9597 71.7539 16 83.7555 16 98.5602Z" fill="#5249A9"/>
<path d="M528 172.561V444.948C528 459.752 515.998 471.754 501.194 471.754H42.8063C28.0016 471.754 16 459.752 16 444.948V199.699C16 184.895 27.962 172.893 42.7667 172.893H178.178C223.749 172.893 217.382 145.752 248.544 145.754C333.567 145.758 449.546 145.756 501.239 145.755C516.044 145.754 528 157.756 528 172.561Z" fill="#9B90FF"/>
<g clip-path="url(#clip0_1212_7996)">
<g filter="url(#filter0_ddiiii_1212_7996)">
<path fill-rule="evenodd" clip-rule="evenodd" d="M340.036 227.086C298.625 243.74 199.42 287.559 197.004 290.264C187.841 300.522 196.741 310.347 218.18 313.641C223.128 314.403 227.403 315.155 227.681 315.312C227.958 315.47 226.979 319.238 225.506 323.684C224.032 328.131 222.963 333.236 223.131 335.03C223.299 336.821 221.714 340.841 219.61 343.961C214.974 350.836 215.458 359.584 220.777 365.063C224.52 368.917 224.522 369.224 220.969 399.875C216.353 439.687 216.396 439.759 243.304 436.919C268.1 434.302 268.296 433.593 254.98 394.79L245.91 368.356L248.838 360.492C252.089 351.765 249.591 342.182 243.37 339.508C240.549 338.296 240.547 337.468 243.334 329.744C246.898 319.869 248.613 319.353 266.067 322.905C374.193 344.91 356.766 345.84 431.918 314.06C530.573 272.34 524.811 275.455 523.653 264.482C522.69 255.355 518.785 254.15 440.066 238.649C358.432 222.576 352.853 221.932 340.036 227.086ZM271.694 343.019C271.852 344.711 271.675 358.098 271.301 372.771C270.455 405.848 269.97 402.71 276.926 409.14C309.236 439.006 454.597 420.403 469.146 384.537C470.474 381.266 458.463 322.88 456.016 320.705C455.66 320.388 437.548 327.686 415.768 336.925C365.486 358.252 368.567 357.92 315.759 347.668C269.244 338.638 271.303 338.855 271.694 343.019Z" fill="#5249A9"/>
</g>
</g>
<defs>
<filter id="filter0_ddiiii_1212_7996" x="181.422" y="212.218" width="354.695" height="237.764" filterUnits="userSpaceOnUse" color-interpolation-filters="sRGB">
<feFlood flood-opacity="0" result="BackgroundImageFix"/>
<feColorMatrix in="SourceAlpha" type="matrix" values="0 0 0 0 0 0 0 0 0 0 0 0 0 0 0 0 0 0 127 0" result="hardAlpha"/>
<feOffset dx="1" dy="-1"/>
<feGaussianBlur stdDeviation="1"/>
<feColorMatrix type="matrix" values="0 0 0 0 0.282353 0 0 0 0 0.25098 0 0 0 0 0.584314 0 0 0 0.5 0"/>
<feBlend mode="normal" in2="BackgroundImageFix" result="effect1_dropShadow_1212_7996"/>
<feColorMatrix in="SourceAlpha" type="matrix" values="0 0 0 0 0 0 0 0 0 0 0 0 0 0 0 0 0 0 127 0" result="hardAlpha"/>
<feOffset dx="-1" dy="1"/>
<feGaussianBlur stdDeviation="1"/>
<feColorMatrix type="matrix" values="0 0 0 0 0.360784 0 0 0 0 0.321569 0 0 0 0 0.741176 0 0 0 0.3 0"/>
<feBlend mode="normal" in2="effect1_dropShadow_1212_7996" result="effect2_dropShadow_1212_7996"/>
<feBlend mode="normal" in="SourceGraphic" in2="effect2_dropShadow_1212_7996" result="shape"/>
<feColorMatrix in="SourceAlpha" type="matrix" values="0 0 0 0 0 0 0 0 0 0 0 0 0 0 0 0 0 0 127 0" result="hardAlpha"/>
<feOffset dx="-12" dy="12"/>
<feGaussianBlur stdDeviation="15"/>
<feComposite in2="hardAlpha" operator="arithmetic" k2="-1" k3="1"/>
<feColorMatrix type="matrix" values="0 0 0 0 0.282353 0 0 0 0 0.25098 0 0 0 0 0.584314 0 0 0 0.9 0"/>
<feBlend mode="normal" in2="shape" result="effect3_innerShadow_1212_7996"/>
<feColorMatrix in="SourceAlpha" type="matrix" values="0 0 0 0 0 0 0 0 0 0 0 0 0 0 0 0 0 0 127 0" result="hardAlpha"/>
<feOffset dx="12" dy="-12"/>
<feGaussianBlur stdDeviation="12"/>
<feComposite in2="hardAlpha" operator="arithmetic" k2="-1" k3="1"/>
<feColorMatrix type="matrix" values="0 0 0 0 0.360784 0 0 0 0 0.321569 0 0 0 0 0.741176 0 0 0 0.9 0"/>
<feBlend mode="normal" in2="effect3_innerShadow_1212_7996" result="effect4_innerShadow_1212_7996"/>
<feColorMatrix in="SourceAlpha" type="matrix" values="0 0 0 0 0 0 0 0 0 0 0 0 0 0 0 0 0 0 127 0" result="hardAlpha"/>
<feOffset dx="-12" dy="-12"/>
<feGaussianBlur stdDeviation="12"/>
<feComposite in2="hardAlpha" operator="arithmetic" k2="-1" k3="1"/>
<feColorMatrix type="matrix" values="0 0 0 0 0.282353 0 0 0 0 0.25098 0 0 0 0 0.584314 0 0 0 0.2 0"/>
<feBlend mode="normal" in2="effect4_innerShadow_1212_7996" result="effect5_innerShadow_1212_7996"/>
<feColorMatrix in="SourceAlpha" type="matrix" values="0 0 0 0 0 0 0 0 0 0 0 0 0 0 0 0 0 0 127 0" result="hardAlpha"/>
<feOffset dx="12" dy="12"/>
<feGaussianBlur stdDeviation="12"/>
<feComposite in2="hardAlpha" operator="arithmetic" k2="-1" k3="1"/>
<feColorMatrix type="matrix" values="0 0 0 0 0.282353 0 0 0 0 0.25098 0 0 0 0 0.584314 0 0 0 0.2 0"/>
<feBlend mode="normal" in2="effect5_innerShadow_1212_7996" result="effect6_innerShadow_1212_7996"/>
</filter>
<clipPath id="clip0_1212_7996">
<rect x="16" y="136.754" width="512" height="326" rx="25.466" fill="white"/>
</clipPath>
</defs>
</svg>
